<?xml version="1.0" encoding="UTF-8" standalone="no"?>
<!-- Created with Inkscape (http://www.inkscape.org/) -->

<svg
   xmlns:dc="http://purl.org/dc/elements/1.1/"
   xmlns:cc="http://creativecommons.org/ns#"
   xmlns:rdf="http://www.w3.org/1999/02/22-rdf-syntax-ns#"
   xmlns:svg="http://www.w3.org/2000/svg"
   xmlns="http://www.w3.org/2000/svg"
   xmlns:sodipodi="http://sodipodi.sourceforge.net/DTD/sodipodi-0.dtd"
   xmlns:inkscape="http://www.inkscape.org/namespaces/inkscape"
   width="60"
   height="60"
   viewBox="0 0 60.000001 60.000001"
   id="svg5561"
   version="1.1"
   inkscape:version="0.91 r13725"
   sodipodi:docname="kticon.svg">
  <defs
     id="defs5563" />
  <sodipodi:namedview
     id="base"
     pagecolor="#ffffff"
     bordercolor="#666666"
     borderopacity="1.0"
     inkscape:pageopacity="0.0"
     inkscape:pageshadow="2"
     inkscape:zoom="9.8328125"
     inkscape:cx="29.903655"
     inkscape:cy="26.329219"
     inkscape:document-units="px"
     inkscape:current-layer="layer1"
     showgrid="false"
     units="px"
     inkscape:window-width="1920"
     inkscape:window-height="1017"
     inkscape:window-x="-8"
     inkscape:window-y="-8"
     inkscape:window-maximized="1" />
  <metadata
     id="metadata5566">
    <rdf:RDF>
      <cc:Work
         rdf:about="">
        <dc:format>image/svg+xml</dc:format>
        <dc:type
           rdf:resource="http://purl.org/dc/dcmitype/StillImage" />
        <dc:title></dc:title>
      </cc:Work>
    </rdf:RDF>
  </metadata>
  <g
     inkscape:label="Layer 1"
     inkscape:groupmode="layer"
     id="layer1"
     transform="translate(0,-992.36216)">
    <g
       id="g3708"
       transform="matrix(0.55367602,0,0,0.55367602,1.7779927,999.55097)">
      <circle
         id="circle3683"
         r="3.0999999"
         cy="3.0999999"
         cx="50"
         class="st0"
         style="fill:#00897b;fill-opacity:1" />
      <circle
         id="circle3685"
         r="3.0999999"
         cy="5"
         cx="40"
         class="st0"
         style="fill:#00897b;fill-opacity:1" />
      <circle
         id="circle3687"
         r="3.0999999"
         cy="10"
         cx="31.299999"
         class="st0"
         style="fill:#00897b;fill-opacity:1" />
      <circle
         id="circle3689"
         r="3.0999999"
         cy="17.700001"
         cx="24.799999"
         class="st0"
         style="fill:#00897b;fill-opacity:1" />
      <path
         id="path3691"
         d="m 45.7,53.3 c 0,0 0,0 0,0 l -4,-10.1 C 41.4,32 32.2,22.9 20.8,22.9 9.3,22.9 0,32.2 0,43.7 0,49.5 2.4,54.8 6.2,58.6 l 0,18.4 25,0 0,-7.2 c 5.7,0 9.4,-3.7 9.4,-9.4 l 0,-4.2 3.1,0 c 1.2,0 2.1,-0.9 2.1,-2.1 0,-0.2 -0.1,-0.8 -0.1,-0.8 z M 12.5,52 c -1.7,0 -3.1,-1.4 -3.1,-3.1 0,-1.7 1.4,-3.1 3.1,-3.1 1.7,0 3.1,1.4 3.1,3.1 0,1.7 -1.4,3.1 -3.1,3.1 z m 0,-8.3 c -1.7,0 -3.1,-1.4 -3.1,-3.1 0,-1.7 1.4,-3.1 3.1,-3.1 1.7,0 3.1,1.4 3.1,3.1 0,1.7 -1.4,3.1 -3.1,3.1 z m 8.3,8.3 c -1.7,0 -3.1,-1.4 -3.1,-3.1 0,-1.7 1.4,-3.1 3.1,-3.1 1.7,0 3.1,1.4 3.1,3.1 0.1,1.7 -1.3,3.1 -3.1,3.1 z m 0,-8.3 c -1.7,0 -3.1,-1.4 -3.1,-3.1 0,-1.7 1.4,-3.1 3.1,-3.1 1.7,0 3.1,1.4 3.1,3.1 0.1,1.7 -1.3,3.1 -3.1,3.1 z m 0,-8.3 c -1.7,0 -3.1,-1.4 -3.1,-3.1 0,-1.7 1.4,-3.1 3.1,-3.1 1.7,0 3.1,1.4 3.1,3.1 0.1,1.7 -1.3,3.1 -3.1,3.1 z M 29.2,52 c -1.7,0 -3.1,-1.4 -3.1,-3.1 0,-1.7 1.4,-3.1 3.1,-3.1 1.7,0 3.1,1.4 3.1,3.1 0,1.7 -1.4,3.1 -3.1,3.1 z m 0,-8.3 c -1.7,0 -3.1,-1.4 -3.1,-3.1 0,-1.7 1.4,-3.1 3.1,-3.1 1.7,0 3.1,1.4 3.1,3.1 0,1.7 -1.4,3.1 -3.1,3.1 z"
         class="st0"
         inkscape:connector-curvature="0"
         style="fill:#00897b;fill-opacity:1" />
      <circle
         id="circle3693"
         r="3.0999999"
         cy="5"
         cx="59.900002"
         class="st0"
         style="fill:#00897b;fill-opacity:1" />
      <circle
         id="circle3695"
         r="3.0999999"
         cy="10"
         cx="68.599998"
         class="st0"
         style="fill:#00897b;fill-opacity:1" />
      <circle
         id="circle3697"
         r="3.0999999"
         cy="17.700001"
         cx="75.099998"
         class="st0"
         style="fill:#00897b;fill-opacity:1" />
      <path
         id="path3699"
         d="M 79.2,22.9 C 67.9,22.9 58.6,32 58.4,43.3 l -4,10.1 c 0,0 0,0 0,0 0,0 -0.2,0.5 -0.2,0.8 0,1.2 0.9,2.1 2.1,2.1 l 3.1,0 0,4.2 c 0,5.7 3.6,9.4 9.4,9.4 l 0,7.1 25,0 0,-18.4 c 3.9,-3.8 6.2,-9 6.2,-14.9 0,-11.5 -9.3,-20.8 -20.8,-20.8 z m 0,29.1 c -1.7,0 -3.1,-1.4 -3.1,-3.1 0,-1.7 1.4,-3.1 3.1,-3.1 1.7,0 3.1,1.4 3.1,3.1 0,1.7 -1.4,3.1 -3.1,3.1 z m 0,-8.3 c -1.7,0 -3.1,-1.4 -3.1,-3.1 0,-1.7 1.4,-3.1 3.1,-3.1 1.7,0 3.1,1.4 3.1,3.1 0,1.7 -1.4,3.1 -3.1,3.1 z m 0,-8.3 c -1.7,0 -3.1,-1.4 -3.1,-3.1 0,-1.7 1.4,-3.1 3.1,-3.1 1.7,0 3.1,1.4 3.1,3.1 0,1.7 -1.4,3.1 -3.1,3.1 z"
         class="st0"
         inkscape:connector-curvature="0"
         style="fill:#00897b;fill-opacity:1" />
    </g>
    <rect
       style="opacity:1;fill:none;fill-opacity:1;stroke:none;stroke-width:1.58248687;stroke-linecap:round;stroke-linejoin:miter;stroke-miterlimit:4;stroke-dasharray:none;stroke-opacity:1"
       id="rect4590"
       width="58.417515"
       height="58.417515"
       x="0.38603038"
       y="992.74506" />
  </g>
</svg>
