<?xml version="1.0" encoding="UTF-8" standalone="no"?>
<!-- Created with Inkscape (http://www.inkscape.org/) -->

<svg
   xmlns:dc="http://purl.org/dc/elements/1.1/"
   xmlns:cc="http://creativecommons.org/ns#"
   xmlns:rdf="http://www.w3.org/1999/02/22-rdf-syntax-ns#"
   xmlns:svg="http://www.w3.org/2000/svg"
   xmlns="http://www.w3.org/2000/svg"
   xmlns:sodipodi="http://sodipodi.sourceforge.net/DTD/sodipodi-0.dtd"
   xmlns:inkscape="http://www.inkscape.org/namespaces/inkscape"
   width="700"
   height="350"
   viewBox="0 0 700.00001 350.00001"
   id="svg2"
   version="1.1"
   inkscape:version="0.91 r13725"
   sodipodi:docname="indigenous-foster-care.svg"
   inkscape:export-filename="C:\Users\Darius\Documents\GitHub\dariuspruss.github.io\02-2018\indigenous-foster-care\indigenous-foster-care.png"
   inkscape:export-xdpi="90"
   inkscape:export-ydpi="90">
  <defs
     id="defs4" />
  <sodipodi:namedview
     id="base"
     pagecolor="#ffffff"
     bordercolor="#666666"
     borderopacity="1.0"
     inkscape:pageopacity="0.0"
     inkscape:pageshadow="2"
     inkscape:zoom="1.2291016"
     inkscape:cx="337.16607"
     inkscape:cy="165.31039"
     inkscape:document-units="px"
     inkscape:current-layer="layer1"
     showgrid="false"
     units="px"
     inkscape:window-width="1920"
     inkscape:window-height="1017"
     inkscape:window-x="-8"
     inkscape:window-y="-8"
     inkscape:window-maximized="1" />
  <metadata
     id="metadata7">
    <rdf:RDF>
      <cc:Work
         rdf:about="">
        <dc:format>image/svg+xml</dc:format>
        <dc:type
           rdf:resource="http://purl.org/dc/dcmitype/StillImage" />
        <dc:title></dc:title>
      </cc:Work>
    </rdf:RDF>
  </metadata>
  <g
     inkscape:label="Layer 1"
     inkscape:groupmode="layer"
     id="layer1"
     transform="translate(0,-702.36216)">
    <rect
       style="opacity:1;fill:#424242;fill-opacity:1;stroke:none;stroke-width:0.49700001;stroke-linecap:round;stroke-linejoin:miter;stroke-miterlimit:4;stroke-dasharray:none;stroke-opacity:1"
       id="rect4136"
       width="700"
       height="350"
       x="0.50850153"
       y="702.36212" />
    <text
       xml:space="preserve"
       style="color:#000000;font-style:normal;font-variant:normal;font-weight:normal;font-stretch:normal;font-size:27.5px;line-height:50%;font-family:'Nunito Sans';-inkscape-font-specification:'Nunito Sans, Normal';text-align:start;letter-spacing:0px;word-spacing:0px;writing-mode:lr-tb;text-anchor:start;clip-rule:nonzero;display:inline;overflow:visible;visibility:visible;opacity:1;isolation:auto;mix-blend-mode:normal;color-interpolation:sRGB;color-interpolation-filters:linearRGB;solid-color:#000000;solid-opacity:1;fill:#000000;fill-opacity:1;fill-rule:nonzero;stroke:none;stroke-width:1px;stroke-linecap:butt;stroke-linejoin:miter;stroke-miterlimit:4;stroke-dasharray:none;stroke-dashoffset:0;stroke-opacity:1;color-rendering:auto;image-rendering:auto;shape-rendering:auto;text-rendering:auto;enable-background:accumulate"
       x="56.75766"
       y="787.39288"
       id="text4138"
       sodipodi:linespacing="50%"><tspan
         sodipodi:role="line"
         id="tspan4140"
         x="56.75766"
         y="787.39288"
         style="font-style:italic;font-variant:normal;font-weight:bold;font-stretch:normal;font-size:22.5px;font-family:'Playfair Display';-inkscape-font-specification:'Playfair Display Bold Italic';fill:#ffffff;fill-opacity:1">Indigenous children make up <tspan
   style="font-size:22.5px;fill:#66bb6a;fill-opacity:1"
   id="tspan4190">7%</tspan> of all children in Canada,</tspan></text>
    <text
       xml:space="preserve"
       style="color:#000000;font-style:normal;font-variant:normal;font-weight:normal;font-stretch:normal;font-size:27.5px;line-height:50%;font-family:'Nunito Sans';-inkscape-font-specification:'Nunito Sans, Normal';text-align:start;letter-spacing:0px;word-spacing:0px;writing-mode:lr-tb;text-anchor:start;clip-rule:nonzero;display:inline;overflow:visible;visibility:visible;opacity:1;isolation:auto;mix-blend-mode:normal;color-interpolation:sRGB;color-interpolation-filters:linearRGB;solid-color:#000000;solid-opacity:1;fill:#000000;fill-opacity:1;fill-rule:nonzero;stroke:none;stroke-width:1px;stroke-linecap:butt;stroke-linejoin:miter;stroke-miterlimit:4;stroke-dasharray:none;stroke-dashoffset:0;stroke-opacity:1;color-rendering:auto;image-rendering:auto;shape-rendering:auto;text-rendering:auto;enable-background:accumulate"
       x="76.002022"
       y="909.79944"
       id="text4142"
       sodipodi:linespacing="50%"><tspan
         sodipodi:role="line"
         id="tspan4144"
         x="76.002022"
         y="909.79944"
         style="font-style:italic;font-variant:normal;font-weight:bold;font-stretch:normal;font-size:22.5px;font-family:'Playfair Display';-inkscape-font-specification:'Playfair Display Bold Italic';fill:#ffffff;fill-opacity:1">but they make up <tspan
   style="font-size:22.5px;fill:#ffa726;fill-opacity:1"
   id="tspan4192">half</tspan> of all children in foster care.</tspan></text>
    <path
       sodipodi:nodetypes="ccccccccccccsc"
       inkscape:connector-curvature="0"
       id="path4161"
       d="m 172.84841,814.89023 c -4.82526,0 -8.73692,3.91166 -8.73692,8.73692 0.008,2.76221 1.31411,5.35976 3.53293,7.00502 -7.77123,0.0374 -7.61943,24.16888 -7.61943,24.16888 l 6.85523,-0.0419 0,8.53072 11.83275,0 0,-8.60381 6.78984,0.10579 c 0,0 0.14927,-23.94562 -7.73158,-23.94562 l -0.0165,-3.7e-4 c 2.39277,-1.62401 3.82697,-4.32675 3.83041,-7.21855 7e-5,-4.82526 -3.91158,-8.73691 -8.73685,-8.73691 z"
       style="fill:none;fill-opacity:1;fill-rule:evenodd;stroke:#66bb6a;stroke-width:1.47136188;stroke-linecap:butt;stroke-linejoin:miter;stroke-miterlimit:4;stroke-dasharray:none;stroke-opacity:1"
       inkscape:export-filename="C:\Users\Darius\Documents\GitHub\dariuspruss.github.io\11-2017\conway-moore\rape-victims.png"
       inkscape:export-xdpi="90"
       inkscape:export-ydpi="90" />
    <path
       inkscape:export-ydpi="90"
       inkscape:export-xdpi="90"
       inkscape:export-filename="C:\Users\Darius\Documents\GitHub\dariuspruss.github.io\11-2017\conway-moore\rape-victims.png"
       style="fill:none;fill-opacity:1;fill-rule:evenodd;stroke:#66bb6a;stroke-width:1.47136188;stroke-linecap:butt;stroke-linejoin:miter;stroke-miterlimit:4;stroke-dasharray:none;stroke-opacity:1"
       d="m 209.63246,814.89023 c -4.82526,0 -8.73692,3.91165 -8.73692,8.73692 0.007,2.76221 1.31411,5.35976 3.53292,7.00501 -7.77123,0.0374 -7.61942,24.16889 -7.61942,24.16889 l 6.85523,-0.0419 0,8.53072 11.83275,0 0,-8.60381 6.78984,0.10579 c 0,0 0.14926,-23.94562 -7.73158,-23.94562 l -0.0165,-3.7e-4 c 2.39277,-1.62401 3.82696,-4.32675 3.8304,-7.21855 7e-5,-4.82526 -3.91158,-8.73692 -8.73684,-8.73692 z"
       id="path4152"
       inkscape:connector-curvature="0"
       sodipodi:nodetypes="ccccccccccccsc" />
    <path
       sodipodi:nodetypes="ccccccccccccsc"
       inkscape:connector-curvature="0"
       id="path4154"
       d="m 246.4165,814.89022 c -4.82525,0 -8.73691,3.91166 -8.73691,8.73691 0.007,2.76223 1.31411,5.35977 3.53292,7.00502 -7.77123,0.0374 -7.61943,24.16889 -7.61943,24.16889 l 6.85524,-0.0419 0,8.53073 11.83275,0 0,-8.60382 6.78984,0.10579 c 0,0 0.14926,-23.94562 -7.73158,-23.94562 l -0.0165,-3.8e-4 c 2.39276,-1.624 3.82696,-4.32674 3.8304,-7.21855 8e-5,-4.82526 -3.91158,-8.73692 -8.73683,-8.73692 z"
       style="fill:none;fill-opacity:1;fill-rule:evenodd;stroke:#66bb6a;stroke-width:1.47136188;stroke-linecap:butt;stroke-linejoin:miter;stroke-miterlimit:4;stroke-dasharray:none;stroke-opacity:1"
       inkscape:export-filename="C:\Users\Darius\Documents\GitHub\dariuspruss.github.io\11-2017\conway-moore\rape-victims.png"
       inkscape:export-xdpi="90"
       inkscape:export-ydpi="90" />
    <path
       inkscape:export-ydpi="90"
       inkscape:export-xdpi="90"
       inkscape:export-filename="C:\Users\Darius\Documents\GitHub\dariuspruss.github.io\11-2017\conway-moore\rape-victims.png"
       style="fill:none;fill-opacity:1;fill-rule:evenodd;stroke:#66bb6a;stroke-width:1.47136188;stroke-linecap:butt;stroke-linejoin:miter;stroke-miterlimit:4;stroke-dasharray:none;stroke-opacity:1"
       d="m 283.20055,814.89022 c -4.82526,0 -8.73692,3.91166 -8.73692,8.73691 0.008,2.76223 1.31411,5.35977 3.53293,7.00502 -7.77124,0.0374 -7.61943,24.16889 -7.61943,24.16889 l 6.85524,-0.0419 0,8.53073 11.83274,0 0,-8.60382 6.78984,0.10579 c 0,0 0.14927,-23.94562 -7.73158,-23.94562 l -0.0165,-3.8e-4 c 2.39277,-1.624 3.82697,-4.32674 3.83041,-7.21855 7e-5,-4.82526 -3.91158,-8.73692 -8.73684,-8.73692 z"
       id="path4156"
       inkscape:connector-curvature="0"
       sodipodi:nodetypes="ccccccccccccsc" />
    <path
       sodipodi:nodetypes="ccccccccccccsc"
       inkscape:connector-curvature="0"
       id="path4158"
       d="m 319.9846,814.89022 c -4.82526,0 -8.73692,3.91166 -8.73692,8.73691 0.007,2.76223 1.31411,5.35977 3.53292,7.00502 -7.77123,0.0374 -7.61942,24.16889 -7.61942,24.16889 l 6.85523,-0.0419 0,8.53073 11.83275,0 0,-8.60382 6.78984,0.10579 c 0,0 0.14926,-23.94562 -7.73158,-23.94562 l -0.0165,-3.8e-4 c 2.39277,-1.624 3.82696,-4.32674 3.8304,-7.21855 8e-5,-4.82526 -3.91157,-8.73692 -8.73683,-8.73692 z"
       style="fill:none;fill-opacity:1;fill-rule:evenodd;stroke:#66bb6a;stroke-width:1.47136188;stroke-linecap:butt;stroke-linejoin:miter;stroke-miterlimit:4;stroke-dasharray:none;stroke-opacity:1"
       inkscape:export-filename="C:\Users\Darius\Documents\GitHub\dariuspruss.github.io\11-2017\conway-moore\rape-victims.png"
       inkscape:export-xdpi="90"
       inkscape:export-ydpi="90" />
    <path
       inkscape:export-ydpi="90"
       inkscape:export-xdpi="90"
       inkscape:export-filename="C:\Users\Darius\Documents\GitHub\dariuspruss.github.io\11-2017\conway-moore\rape-victims.png"
       style="fill:none;fill-opacity:1;fill-rule:evenodd;stroke:#66bb6a;stroke-width:1.47136188;stroke-linecap:butt;stroke-linejoin:miter;stroke-miterlimit:4;stroke-dasharray:none;stroke-opacity:1"
       d="m 356.76864,814.89023 c -4.82526,0 -8.73691,3.91166 -8.73691,8.73692 0.007,2.76221 1.31411,5.35976 3.53292,7.00502 -7.77123,0.0374 -7.61943,24.16888 -7.61943,24.16888 l 6.85523,-0.0419 0,8.53072 11.83275,0 0,-8.60381 6.78985,0.10579 c 0,0 0.14926,-23.94562 -7.73158,-23.94562 l -0.0165,-3.7e-4 c 2.39276,-1.62401 3.82695,-4.32675 3.83039,-7.21855 8e-5,-4.82526 -3.91157,-8.73691 -8.73683,-8.73691 z"
       id="path4160"
       inkscape:connector-curvature="0"
       sodipodi:nodetypes="ccccccccccccsc" />
    <path
       sodipodi:nodetypes="ccccccccccccsc"
       inkscape:connector-curvature="0"
       id="path4162"
       d="m 393.55269,814.89023 c -4.82527,0 -8.73692,3.91166 -8.73692,8.73692 0.008,2.76221 1.31411,5.35976 3.53293,7.00502 -7.77124,0.0374 -7.61943,24.16888 -7.61943,24.16888 l 6.85523,-0.0419 0,8.53072 11.83275,0 0,-8.60381 6.78984,0.10579 c 0,0 0.14927,-23.94562 -7.73158,-23.94562 l -0.0165,-3.7e-4 c 2.39277,-1.62401 3.82696,-4.32675 3.8304,-7.21855 7e-5,-4.82526 -3.91158,-8.73691 -8.73684,-8.73691 z"
       style="fill:none;fill-opacity:1;fill-rule:evenodd;stroke:#66bb6a;stroke-width:1.47136188;stroke-linecap:butt;stroke-linejoin:miter;stroke-miterlimit:4;stroke-dasharray:none;stroke-opacity:1"
       inkscape:export-filename="C:\Users\Darius\Documents\GitHub\dariuspruss.github.io\11-2017\conway-moore\rape-victims.png"
       inkscape:export-xdpi="90"
       inkscape:export-ydpi="90" />
    <path
       inkscape:export-ydpi="90"
       inkscape:export-xdpi="90"
       inkscape:export-filename="C:\Users\Darius\Documents\GitHub\dariuspruss.github.io\11-2017\conway-moore\rape-victims.png"
       style="fill:none;fill-opacity:1;fill-rule:evenodd;stroke:#66bb6a;stroke-width:1.47136188;stroke-linecap:butt;stroke-linejoin:miter;stroke-miterlimit:4;stroke-dasharray:none;stroke-opacity:1"
       d="m 430.33674,814.89022 c -4.82526,0 -8.73692,3.91166 -8.73692,8.73691 0.007,2.76223 1.31411,5.35977 3.53292,7.00502 -7.77123,0.0374 -7.61942,24.16889 -7.61942,24.16889 l 6.85523,-0.0419 0,8.53073 11.83275,0 0,-8.60382 6.78984,0.10579 c 0,0 0.14926,-23.94562 -7.73158,-23.94562 l -0.0165,-3.8e-4 c 2.39277,-1.624 3.82696,-4.32674 3.8304,-7.21855 8e-5,-4.82526 -3.91157,-8.73692 -8.73683,-8.73692 z"
       id="path4164"
       inkscape:connector-curvature="0"
       sodipodi:nodetypes="ccccccccccccsc" />
    <path
       sodipodi:nodetypes="ccccccccccccsc"
       inkscape:connector-curvature="0"
       id="path4166"
       d="m 467.12078,814.89022 c -4.82526,0 -8.73691,3.91166 -8.73691,8.73691 0.008,2.76223 1.31411,5.35977 3.53292,7.00502 -7.77123,0.0374 -7.61943,24.16889 -7.61943,24.16889 l 6.85524,-0.0419 0,8.53073 11.83274,0 0,-8.60382 6.78985,0.10579 c 0,0 0.14926,-23.94562 -7.73158,-23.94562 l -0.0165,-3.8e-4 c 2.39276,-1.624 3.82696,-4.32674 3.8304,-7.21855 7e-5,-4.82526 -3.91158,-8.73692 -8.73684,-8.73692 z"
       style="fill:none;fill-opacity:1;fill-rule:evenodd;stroke:#66bb6a;stroke-width:1.47136188;stroke-linecap:butt;stroke-linejoin:miter;stroke-miterlimit:4;stroke-dasharray:none;stroke-opacity:1"
       inkscape:export-filename="C:\Users\Darius\Documents\GitHub\dariuspruss.github.io\11-2017\conway-moore\rape-victims.png"
       inkscape:export-xdpi="90"
       inkscape:export-ydpi="90" />
    <path
       inkscape:export-ydpi="90"
       inkscape:export-xdpi="90"
       inkscape:export-filename="C:\Users\Darius\Documents\GitHub\dariuspruss.github.io\11-2017\conway-moore\rape-victims.png"
       style="fill:none;fill-opacity:1;fill-rule:evenodd;stroke:#66bb6a;stroke-width:1.47136188;stroke-linecap:butt;stroke-linejoin:miter;stroke-miterlimit:4;stroke-dasharray:none;stroke-opacity:1"
       d="m 503.90483,814.89022 c -4.82526,0 -8.73692,3.91166 -8.73692,8.73691 0.008,2.76223 1.31411,5.35977 3.53293,7.00502 -7.77124,0.0374 -7.61943,24.16889 -7.61943,24.16889 l 6.85524,-0.0419 0,8.53073 11.83274,0 0,-8.60382 6.78984,0.10579 c 0,0 0.14926,-23.94562 -7.73158,-23.94562 l -0.0165,-3.8e-4 c 2.39277,-1.624 3.82696,-4.32674 3.83041,-7.21855 7e-5,-4.82526 -3.91158,-8.73692 -8.73684,-8.73692 z"
       id="path4168"
       inkscape:connector-curvature="0"
       sodipodi:nodetypes="ccccccccccccsc" />
    <path
       inkscape:export-ydpi="90"
       inkscape:export-xdpi="90"
       inkscape:export-filename="C:\Users\Darius\Documents\GitHub\dariuspruss.github.io\11-2017\conway-moore\rape-victims.png"
       style="fill:#ffa726;fill-opacity:1;fill-rule:evenodd;stroke:#ffa726;stroke-width:1.47136188;stroke-linecap:butt;stroke-linejoin:miter;stroke-miterlimit:4;stroke-dasharray:none;stroke-opacity:1"
       d="m 172.84841,934.15762 c -4.82526,0 -8.73692,3.91166 -8.73692,8.73691 0.008,2.76222 1.31411,5.35977 3.53293,7.00503 -7.77123,0.0374 -7.61943,24.16887 -7.61943,24.16887 l 6.85523,-0.0419 0,8.53072 11.83275,0 0,-8.60382 6.78984,0.1058 c 0,0 0.14927,-23.94562 -7.73158,-23.94562 l -0.0165,-3.8e-4 c 2.39277,-1.624 3.82697,-4.32674 3.83041,-7.21855 7e-5,-4.82526 -3.91158,-8.73691 -8.73685,-8.73691 z"
       id="path4170"
       inkscape:connector-curvature="0"
       sodipodi:nodetypes="ccccccccccccsc" />
    <path
       sodipodi:nodetypes="ccccccccccccsc"
       inkscape:connector-curvature="0"
       id="path4172"
       d="m 209.63246,934.15762 c -4.82526,0 -8.73692,3.91165 -8.73692,8.73691 0.007,2.76222 1.31411,5.35976 3.53292,7.00502 -7.77123,0.0374 -7.61942,24.16888 -7.61942,24.16888 l 6.85523,-0.0419 0,8.53072 11.83275,0 0,-8.60382 6.78984,0.1058 c 0,0 0.14926,-23.94562 -7.73158,-23.94562 l -0.0165,-3.8e-4 c 2.39277,-1.624 3.82696,-4.32674 3.8304,-7.21855 7e-5,-4.82526 -3.91158,-8.73692 -8.73684,-8.73692 z"
       style="fill:#ffa726;fill-opacity:1;fill-rule:evenodd;stroke:#ffa726;stroke-width:1.47136188;stroke-linecap:butt;stroke-linejoin:miter;stroke-miterlimit:4;stroke-dasharray:none;stroke-opacity:1"
       inkscape:export-filename="C:\Users\Darius\Documents\GitHub\dariuspruss.github.io\11-2017\conway-moore\rape-victims.png"
       inkscape:export-xdpi="90"
       inkscape:export-ydpi="90" />
    <path
       inkscape:export-ydpi="90"
       inkscape:export-xdpi="90"
       inkscape:export-filename="C:\Users\Darius\Documents\GitHub\dariuspruss.github.io\11-2017\conway-moore\rape-victims.png"
       style="fill:#ffa726;fill-opacity:1;fill-rule:evenodd;stroke:#ffa726;stroke-width:1.47136188;stroke-linecap:butt;stroke-linejoin:miter;stroke-miterlimit:4;stroke-dasharray:none;stroke-opacity:1"
       d="m 246.4165,934.1576 c -4.82525,0 -8.73691,3.91166 -8.73691,8.73692 0.007,2.76222 1.31411,5.35977 3.53292,7.00502 -7.77123,0.0374 -7.61943,24.16888 -7.61943,24.16888 l 6.85524,-0.0419 0,8.53072 11.83275,0 0,-8.60382 6.78984,0.10579 c 0,0 0.14926,-23.94562 -7.73158,-23.94562 l -0.0165,-3.7e-4 c 2.39276,-1.62401 3.82696,-4.32675 3.8304,-7.21855 8e-5,-4.82527 -3.91158,-8.73692 -8.73683,-8.73692 z"
       id="path4174"
       inkscape:connector-curvature="0"
       sodipodi:nodetypes="ccccccccccccsc" />
    <path
       sodipodi:nodetypes="ccccccccccccsc"
       inkscape:connector-curvature="0"
       id="path4176"
       d="m 283.20055,934.1576 c -4.82526,0 -8.73692,3.91166 -8.73692,8.73692 0.008,2.76222 1.31411,5.35977 3.53293,7.00502 -7.77124,0.0374 -7.61943,24.16888 -7.61943,24.16888 l 6.85524,-0.0419 0,8.53072 11.83274,0 0,-8.60382 6.78984,0.10579 c 0,0 0.14927,-23.94562 -7.73158,-23.94562 l -0.0165,-3.7e-4 c 2.39277,-1.62401 3.82697,-4.32675 3.83041,-7.21855 7e-5,-4.82527 -3.91158,-8.73692 -8.73684,-8.73692 z"
       style="fill:#ffa726;fill-opacity:1;fill-rule:evenodd;stroke:#ffa726;stroke-width:1.47136188;stroke-linecap:butt;stroke-linejoin:miter;stroke-miterlimit:4;stroke-dasharray:none;stroke-opacity:1"
       inkscape:export-filename="C:\Users\Darius\Documents\GitHub\dariuspruss.github.io\11-2017\conway-moore\rape-victims.png"
       inkscape:export-xdpi="90"
       inkscape:export-ydpi="90" />
    <path
       inkscape:export-ydpi="90"
       inkscape:export-xdpi="90"
       inkscape:export-filename="C:\Users\Darius\Documents\GitHub\dariuspruss.github.io\11-2017\conway-moore\rape-victims.png"
       style="fill:#ffa726;fill-opacity:1;fill-rule:evenodd;stroke:#ffa726;stroke-width:1.47136188;stroke-linecap:butt;stroke-linejoin:miter;stroke-miterlimit:4;stroke-dasharray:none;stroke-opacity:1"
       d="m 319.9846,934.1576 c -4.82526,0 -8.73692,3.91166 -8.73692,8.73692 0.007,2.76222 1.31411,5.35977 3.53292,7.00502 -7.77123,0.0374 -7.61942,24.16888 -7.61942,24.16888 l 6.85523,-0.0419 0,8.53072 11.83275,0 0,-8.60382 6.78984,0.10579 c 0,0 0.14926,-23.94562 -7.73158,-23.94562 l -0.0165,-3.7e-4 c 2.39277,-1.62401 3.82696,-4.32675 3.8304,-7.21855 8e-5,-4.82527 -3.91157,-8.73692 -8.73683,-8.73692 z"
       id="path4178"
       inkscape:connector-curvature="0"
       sodipodi:nodetypes="ccccccccccccsc" />
    <path
       sodipodi:nodetypes="ccccccccccccsc"
       inkscape:connector-curvature="0"
       id="path4180"
       d="m 356.76864,934.15762 c -4.82526,0 -8.73691,3.91166 -8.73691,8.73691 0.007,2.76222 1.31411,5.35977 3.53292,7.00503 -7.77123,0.0374 -7.61943,24.16887 -7.61943,24.16887 l 6.85523,-0.0419 0,8.53072 11.83275,0 0,-8.60382 6.78985,0.1058 c 0,0 0.14926,-23.94562 -7.73158,-23.94562 l -0.0165,-3.8e-4 c 2.39276,-1.624 3.82695,-4.32674 3.83039,-7.21855 8e-5,-4.82526 -3.91157,-8.73691 -8.73683,-8.73691 z"
       style="fill:none;fill-opacity:1;fill-rule:evenodd;stroke:#ffa726;stroke-width:1.47136188;stroke-linecap:butt;stroke-linejoin:miter;stroke-miterlimit:4;stroke-dasharray:none;stroke-opacity:1"
       inkscape:export-filename="C:\Users\Darius\Documents\GitHub\dariuspruss.github.io\11-2017\conway-moore\rape-victims.png"
       inkscape:export-xdpi="90"
       inkscape:export-ydpi="90" />
    <path
       inkscape:export-ydpi="90"
       inkscape:export-xdpi="90"
       inkscape:export-filename="C:\Users\Darius\Documents\GitHub\dariuspruss.github.io\11-2017\conway-moore\rape-victims.png"
       style="fill:none;fill-opacity:1;fill-rule:evenodd;stroke:#ffa726;stroke-width:1.47136188;stroke-linecap:butt;stroke-linejoin:miter;stroke-miterlimit:4;stroke-dasharray:none;stroke-opacity:1"
       d="m 393.55269,934.15762 c -4.82527,0 -8.73692,3.91166 -8.73692,8.73691 0.008,2.76222 1.31411,5.35977 3.53293,7.00503 -7.77124,0.0374 -7.61943,24.16887 -7.61943,24.16887 l 6.85523,-0.0419 0,8.53072 11.83275,0 0,-8.60382 6.78984,0.1058 c 0,0 0.14927,-23.94562 -7.73158,-23.94562 l -0.0165,-3.8e-4 c 2.39277,-1.624 3.82696,-4.32674 3.8304,-7.21855 7e-5,-4.82526 -3.91158,-8.73691 -8.73684,-8.73691 z"
       id="path4182"
       inkscape:connector-curvature="0"
       sodipodi:nodetypes="ccccccccccccsc" />
    <path
       sodipodi:nodetypes="ccccccccccccsc"
       inkscape:connector-curvature="0"
       id="path4184"
       d="m 430.33674,934.1576 c -4.82526,0 -8.73692,3.91166 -8.73692,8.73692 0.007,2.76222 1.31411,5.35977 3.53292,7.00502 -7.77123,0.0374 -7.61942,24.16888 -7.61942,24.16888 l 6.85523,-0.0419 0,8.53072 11.83275,0 0,-8.60382 6.78984,0.10579 c 0,0 0.14926,-23.94562 -7.73158,-23.94562 l -0.0165,-3.7e-4 c 2.39277,-1.62401 3.82696,-4.32675 3.8304,-7.21855 8e-5,-4.82527 -3.91157,-8.73692 -8.73683,-8.73692 z"
       style="fill:none;fill-opacity:1;fill-rule:evenodd;stroke:#ffa726;stroke-width:1.47136188;stroke-linecap:butt;stroke-linejoin:miter;stroke-miterlimit:4;stroke-dasharray:none;stroke-opacity:1"
       inkscape:export-filename="C:\Users\Darius\Documents\GitHub\dariuspruss.github.io\11-2017\conway-moore\rape-victims.png"
       inkscape:export-xdpi="90"
       inkscape:export-ydpi="90" />
    <path
       inkscape:export-ydpi="90"
       inkscape:export-xdpi="90"
       inkscape:export-filename="C:\Users\Darius\Documents\GitHub\dariuspruss.github.io\11-2017\conway-moore\rape-victims.png"
       style="fill:none;fill-opacity:1;fill-rule:evenodd;stroke:#ffa726;stroke-width:1.47136188;stroke-linecap:butt;stroke-linejoin:miter;stroke-miterlimit:4;stroke-dasharray:none;stroke-opacity:1"
       d="m 467.12078,934.1576 c -4.82526,0 -8.73691,3.91166 -8.73691,8.73692 0.008,2.76222 1.31411,5.35977 3.53292,7.00502 -7.77123,0.0374 -7.61943,24.16888 -7.61943,24.16888 l 6.85524,-0.0419 0,8.53072 11.83274,0 0,-8.60382 6.78985,0.10579 c 0,0 0.14926,-23.94562 -7.73158,-23.94562 l -0.0165,-3.7e-4 c 2.39276,-1.62401 3.82696,-4.32675 3.8304,-7.21855 7e-5,-4.82527 -3.91158,-8.73692 -8.73684,-8.73692 z"
       id="path4186"
       inkscape:connector-curvature="0"
       sodipodi:nodetypes="ccccccccccccsc" />
    <path
       sodipodi:nodetypes="ccccccccccccsc"
       inkscape:connector-curvature="0"
       id="path4188"
       d="m 503.90483,934.1576 c -4.82526,0 -8.73692,3.91166 -8.73692,8.73692 0.008,2.76222 1.31411,5.35977 3.53293,7.00502 -7.77124,0.0374 -7.61943,24.16888 -7.61943,24.16888 l 6.85524,-0.0419 0,8.53072 11.83274,0 0,-8.60382 6.78984,0.10579 c 0,0 0.14926,-23.94562 -7.73158,-23.94562 l -0.0165,-3.7e-4 c 2.39277,-1.62401 3.82696,-4.32675 3.83041,-7.21855 7e-5,-4.82527 -3.91158,-8.73692 -8.73684,-8.73692 z"
       style="fill:none;fill-opacity:1;fill-rule:evenodd;stroke:#ffa726;stroke-width:1.47136188;stroke-linecap:butt;stroke-linejoin:miter;stroke-miterlimit:4;stroke-dasharray:none;stroke-opacity:1"
       inkscape:export-filename="C:\Users\Darius\Documents\GitHub\dariuspruss.github.io\11-2017\conway-moore\rape-victims.png"
       inkscape:export-xdpi="90"
       inkscape:export-ydpi="90" />
    <path
       inkscape:export-ydpi="90"
       inkscape:export-xdpi="90"
       inkscape:export-filename="C:\Users\Darius\Documents\GitHub\dariuspruss.github.io\11-2017\conway-moore\rape-victims.png"
       style="fill:#66bb6a;fill-opacity:1;fill-rule:evenodd;stroke:#66bb6a;stroke-width:1.47136188;stroke-linecap:butt;stroke-linejoin:miter;stroke-miterlimit:4;stroke-dasharray:none;stroke-opacity:1"
       d="m 166.47845,829.12859 c 0,0 -0.80729,-0.14159 1.4115,1.50367 -7.77123,0.0374 -7.61943,24.16888 -7.61943,24.16888 l 6.85523,-0.0419 0,8.53072 11.83275,0 0,-8.60381 6.78984,0.10579 c 0,0 0.14927,-23.94562 -7.73158,-23.94562 l -0.0165,-3.7e-4 c 1.20558,-1.68125 1.20558,-1.68125 1.20558,-1.68125 z"
       id="path4194"
       inkscape:connector-curvature="0"
       sodipodi:nodetypes="cccccccccccc" />
    <text
       xml:space="preserve"
       style="color:#000000;font-style:normal;font-variant:normal;font-weight:normal;font-stretch:normal;font-size:27.5px;line-height:50%;font-family:'Nunito Sans';-inkscape-font-specification:'Nunito Sans, Normal';text-align:start;letter-spacing:0px;word-spacing:0px;writing-mode:lr-tb;text-anchor:start;clip-rule:nonzero;display:inline;overflow:visible;visibility:visible;opacity:1;isolation:auto;mix-blend-mode:normal;color-interpolation:sRGB;color-interpolation-filters:linearRGB;solid-color:#000000;solid-opacity:1;fill:#000000;fill-opacity:1;fill-rule:nonzero;stroke:none;stroke-width:1px;stroke-linecap:butt;stroke-linejoin:miter;stroke-miterlimit:4;stroke-dasharray:none;stroke-dashoffset:0;stroke-opacity:1;color-rendering:auto;image-rendering:auto;shape-rendering:auto;text-rendering:auto;enable-background:accumulate"
       x="565.74786"
       y="1040.7573"
       id="text4198"
       sodipodi:linespacing="50%"><tspan
         sodipodi:role="line"
         id="tspan4200"
         x="565.74786"
         y="1040.7573"
         style="font-style:normal;font-variant:normal;font-weight:300;font-stretch:normal;font-size:12.5px;font-family:Montserrat;-inkscape-font-specification:'Montserrat Light';fill:#ffffff;fill-opacity:1">Source: CBC</tspan></text>
  </g>
</svg>
